<svg xmlns="http://www.w3.org/2000/svg" width="256" height="256" viewBox="0 0 100 100"><rect width="100" height="100" rx="20" fill="#7d6ee7"></rect><path fill="#fff" d="M30.10 38.10L30.10 38.10Q31.10 38.10 32.10 38.50Q33.10 38.90 34.30 39.30L34.30 39.30L44.90 44.70L44.30 25.90Q45.30 25.30 46.90 24.70Q48.50 24.10 50.50 24.10L50.50 24.10Q53.10 24.10 54.80 25.30Q56.50 26.50 56.50 29.30L56.50 29.30Q56.50 30.70 56.10 35.70Q55.70 40.70 55.50 45.10L55.50 45.10L70.90 36.30Q72.70 37.10 74.30 39Q75.90 40.90 75.90 43.30L75.90 43.30Q75.90 45.70 74.50 46.90Q73.10 48.10 70.90 49.10L70.90 49.10L59.10 54.70L71.70 69.70Q71.30 72.30 69.20 74.10Q67.10 75.90 64.70 75.90L64.70 75.90Q62.50 75.90 60.70 74.20Q58.90 72.50 57.50 70.70L57.50 70.70L50.30 60.70L40.10 75.70Q39.10 75.90 37.50 75.90L37.50 75.90Q33.50 75.90 31.70 74.20Q29.90 72.50 29.90 70.10L29.90 70.10Q29.90 67.10 32.30 64.70L32.30 64.70L41.50 54.30L24.70 48.70Q24.10 46.70 24.10 44.50L24.10 44.50Q24.10 41.70 25.70 39.90Q27.30 38.10 30.10 38.10Z"></path></svg>
