<svg xmlns="http://www.w3.org/2000/svg" width="256" height="256" viewBox="0 0 100 100"><rect width="100" height="100" rx="20" fill="#ff0000"></rect><path fill="#fff" d="M27.92 64.40L27.92 64.40Q31.04 60.56 34.22 56.84Q37.40 53.12 40.64 49.28L40.64 49.28Q36.08 43.88 31.94 38.78Q27.80 33.68 23.48 28.28L23.48 28.28Q24.20 24.80 26.30 22.70Q28.40 20.60 31.52 20.60L31.52 20.60Q34.52 20.60 36.20 22.04Q37.88 23.48 39.92 26.12L39.92 26.12Q42.32 29.48 44.90 33.08Q47.48 36.68 50.24 40.28L50.24 40.28Q54.08 35.24 57.62 30.56Q61.16 25.88 64.88 20.72L64.88 20.72Q65.48 20.60 65.84 20.60Q66.20 20.60 66.68 20.60L66.68 20.60Q70.76 20.60 73.16 22.40Q75.56 24.20 75.56 27.08L75.56 27.08Q75.56 29.36 74.54 31.16Q73.52 32.96 70.88 35.96L70.88 35.96L59.24 49.52Q63.56 55.28 67.88 60.74Q72.20 66.20 76.52 71.84L76.52 71.84Q76.04 75.32 73.88 77.36Q71.72 79.40 68.60 79.40L68.60 79.40Q65.24 79.28 63.20 77.48Q61.16 75.68 59.12 72.80L59.12 72.80Q56.72 69.44 54.20 65.96Q51.68 62.48 49.28 59.00L49.28 59.00Q45.56 64.04 41.96 69.08Q38.36 74.12 34.88 79.16L34.88 79.16L32.72 79.16Q28.28 79.16 25.94 77.24Q23.60 75.32 23.60 72.56L23.60 72.56Q23.60 70.64 24.56 69.02Q25.52 67.40 27.92 64.40Z"></path></svg>